<svg width="123" height="16" viewBox="0 0 123 16" fill="none" xmlns="http://www.w3.org/2000/svg">
<path d="M10.334 9.07533H3.33278V15.6928H0V0H11.3411V2.74151H3.33278V6.31019H10.334V9.07533Z" fill="white"/>
<path d="M17.0901 13.4239C18.9842 13.4239 19.9433 12.2422 19.9433 9.87888C19.9433 7.51551 18.9842 6.35746 17.0901 6.35746C15.1959 6.35746 14.2368 7.51551 14.2368 9.87888C14.2368 12.2422 15.1959 13.4239 17.0901 13.4239ZM17.0901 16C13.2778 16 11.0239 13.4948 11.0239 9.87888C11.0239 6.19202 13.3497 3.75776 17.0901 3.75776C20.7825 3.75776 23.0843 6.16839 23.0843 9.87888C23.0843 13.5657 20.7585 16 17.0901 16Z" fill="white"/>
<path d="M31.6935 11.486H34.8345C34.4988 14.1802 32.2689 16 29.4157 16C26.2028 16 23.9969 13.8966 23.9969 9.73707C23.9969 5.57755 26.2028 3.75776 29.5116 3.75776C32.5806 3.75776 34.6666 5.48301 34.8584 8.22452H31.7175C31.5496 7.0192 30.6625 6.31019 29.4876 6.31019C28.1689 6.31019 27.0899 7.13737 27.0899 9.66617C27.0899 12.195 28.1689 13.4239 29.3917 13.4239C30.6145 13.4239 31.5736 12.7386 31.6935 11.486Z" fill="white"/>
<path d="M46.378 15.6928H43.4288V14.062C42.6136 15.3855 41.3908 16 39.7604 16C37.4107 16 35.7562 14.2747 35.7562 11.7223V4.06499H38.8732V11.2496C38.8732 12.7149 39.5446 13.4239 40.8633 13.4239C42.4458 13.4239 43.285 12.3131 43.285 10.777V4.06499H46.378V15.6928Z" fill="white"/>
<path d="M57.8389 7.58641H54.8418C54.674 6.45199 54.0506 6.05022 52.636 6.05022C51.4611 6.05022 50.7897 6.33383 50.7897 7.0192C50.7897 7.70458 51.4371 7.98818 52.7079 8.34269C54.0506 8.72083 55.3214 8.9808 56.2325 9.3353C57.4793 9.83161 58.1746 10.6352 58.1746 12.1477C58.1746 14.5583 56.3764 16 53.0196 16C49.3991 16 47.385 14.322 47.3371 11.9586H50.55C50.55 13.0458 51.4851 13.6839 52.9956 13.6839C54.0986 13.6839 55.0816 13.353 55.0816 12.4786C55.0816 11.6514 54.1945 11.3914 53.1874 11.1551C51.1973 10.6824 50.0944 10.3516 49.2552 9.83161C48.1523 9.14623 47.7687 8.24815 47.7687 7.20827C47.7687 5.24668 49.1353 3.75776 52.7319 3.75776C56.1366 3.75776 57.6711 5.08124 57.8389 7.58641Z" fill="white"/>
<path d="M62.3149 15.6928H58.9822V12.5022H62.3149V15.6928Z" fill="white"/>
<path d="M73.7884 9.07533H66.7872V15.6928H63.4544V0H74.7954V2.74151H66.7872V6.31019H73.7884V9.07533Z" fill="white"/>
<path d="M78.2805 15.6928H75.1635V4.06499H78.0887V5.45938C79.1197 3.89956 80.3186 3.75776 81.5893 3.75776H81.9969V6.90103C81.7092 6.85377 81.4215 6.83013 81.1338 6.83013C79.2156 6.83013 78.2805 7.77548 78.2805 9.64254V15.6928Z" fill="white"/>
<path d="M89.4268 11.2733L89.4508 9.99705C89.1391 10.3043 88.5876 10.4697 87.4367 10.6824C85.6624 11.0133 85.087 11.5096 85.087 12.5022C85.087 13.3767 85.6144 13.8021 86.5975 13.8021C88.2039 13.8021 89.4028 12.644 89.4268 11.2733ZM92.5677 15.6928H89.6665C89.5706 15.4092 89.4987 15.0074 89.4747 14.6529C88.7314 15.4564 87.4846 16 85.9022 16C83.2168 16 81.97 14.7001 81.97 12.8095C81.97 9.45347 84.2478 9.07533 87.3887 8.64993C88.9472 8.43722 89.3788 8.12998 89.3788 7.32644C89.3788 6.57016 88.6116 6.12112 87.3887 6.12112C85.9741 6.12112 85.3987 6.8065 85.2548 7.84638H82.3536C82.4016 5.43575 83.7443 3.75776 87.5326 3.75776C91.273 3.75776 92.5677 5.41211 92.5677 8.34269V15.6928Z" fill="white"/>
<path d="M110.822 15.6928H107.777V8.64993C107.777 7.25554 107.034 6.26292 105.931 6.26292C104.78 6.26292 103.941 7.32644 103.941 8.74446V15.6928H100.824V8.69719C100.824 6.83013 100.32 6.35746 98.9535 6.35746C97.7067 6.35746 97.0593 7.11374 97.0593 8.62629V15.6928H93.9423V4.06499H96.8675V5.76662C97.6587 4.23043 98.7616 3.75776 100.32 3.75776C101.927 3.75776 102.694 4.25406 103.605 5.60118C104.252 4.32496 105.307 3.75776 106.794 3.75776C109.168 3.75776 110.822 5.45938 110.822 7.63368V15.6928Z" fill="white"/>
<path d="M114.968 8.74446H119.787C119.739 7.0192 118.588 6.19202 117.365 6.19202C116.119 6.19202 115.088 7.13737 114.968 8.74446ZM123 10.6824H114.872C114.968 12.4313 115.975 13.5657 117.509 13.5657C118.516 13.5657 119.403 13.0694 119.619 12.2659H122.832C122.113 14.6529 120.171 16 117.653 16C113.721 16 111.755 13.873 111.755 9.66617C111.755 6.07386 113.841 3.75776 117.461 3.75776C121.082 3.75776 123 6.07385 123 10.6824Z" fill="white"/>
</svg>
