<svg style="position: absolute; width: 0; height: 0; overflow: hidden;" aria-hidden="true" version="1.1" xmlns="http://www.w3.org/2000/svg" xmlns:xlink="http://www.w3.org/1999/xlink">
    <style>
        .default-palette, .palette0 {color: currentColor;
            --color0: #fff;
            --color1: #bea69e;
        }
    </style>
    <defs>
        <symbol id="icon-close" viewBox="0 0 32 32" stroke-width="3" stroke="currentColor" stroke-linecap="round" stroke-linejoin="round" fill="none">
            <path d="M24 8 8 24" />
            <path d="M8 8 24 24" />
        </symbol>
        <symbol id="logo-focusframe" viewBox="0 0 124 17" fill="var(--color0, #fff)">
            <path d="M10.344 9.216H3.336v6.72H0V0h11.352v2.784H3.336v3.624h7.008z" />
            <path d="M17.1066 13.632c1.896 0 2.856-1.2 2.856-3.6s-0.96-3.576-2.856-3.576-2.856 1.176-2.856 3.576 0.96 3.6 2.856 3.6zM17.1066 16.248c-3.816 0-6.072-2.544-6.072-6.216 0-3.744 2.328-6.216 6.072-6.216 3.696 0 6 2.448 6 6.216 0 3.744-2.328 6.216-6 6.216z" />
            <path d="M31.7241 11.664h3.144c-0.336 2.736-2.568 4.584-5.424 4.584-3.216 0-5.424-2.136-5.424-6.36s2.208-6.072 5.52-6.072c3.072 0 5.16 1.752 5.352 4.536h-3.144c-0.168-1.224-1.056-1.944-2.232-1.944-1.32 0-2.4 0.84-2.4 3.408s1.08 3.816 2.304 3.816 2.184-0.696 2.304-1.968z" />
            <path d="M46.4228 15.936h-2.9521V14.28c-0.816 1.344-2.0399 1.968-3.6719 1.968-2.352 0-4.0081-1.752-4.0081-4.344V4.128h3.1201v7.296c0 1.488 0.6719 2.208 1.9919 2.208 1.584 0 2.4241-1.128 2.4241-2.688V4.128h3.096z" />
            <path d="M57.8948 7.704h-3c-0.168-1.152-0.792-1.56-2.208-1.56-1.176 0-1.848 0.288-1.848 0.984s0.648 0.984 1.92 1.344c1.344 0.384 2.616 0.648 3.528 1.008 1.248 0.504 1.944 1.32 1.944 2.856 0 2.448-1.8001 3.912-5.1601 3.912-3.624 0-5.6399-1.704-5.6879-4.104h3.2159c0 1.104 0.9361 1.752 2.4481 1.752 1.104 0 2.088-0.336 2.088-1.224 0-0.84-0.8881-1.104-1.8961-1.344-1.992-0.48-3.096-0.816-3.936-1.344-1.104-0.696-1.4879-1.608-1.4879-2.664 0-1.992 1.368-3.504 4.968-3.504 3.408 0 4.944 1.344 5.112 3.888z" />
            <path d="M62.3751 15.936h-3.336v-3.24h3.336z" />
            <path d="M73.8596 9.216h-7.008v6.72h-3.336V0h11.352v2.784h-8.016v3.624h7.008z" />
            <path d="M78.3561 15.936h-3.12V4.128h2.928v1.416c1.032-1.584 2.232-1.728 3.504-1.728h0.408v3.192c-0.288-0.048-0.576-0.072-0.864-0.072-1.92 0-2.856 0.96-2.856 2.856z" />
            <path d="M89.5131 11.448l0.024-1.296c-0.312 0.312-0.864 0.48-2.016 0.696-1.776 0.336-2.352 0.84-2.352 1.848 0 0.888 0.528 1.32 1.512 1.32 1.608 0 2.808-1.176 2.832-2.568zM92.6571 15.936h-2.904c-0.096-0.288-0.168-0.696-0.192-1.056-0.744 0.816-1.992 1.368-3.576 1.368-2.688 0-3.936-1.32-3.936-3.24 0-3.408 2.28-3.792 5.424-4.224 1.56-0.216 1.992-0.528 1.992-1.344 0-0.768-0.768-1.224-1.992-1.224-1.416 0-1.992 0.696-2.136 1.752h-2.904c0.048-2.448 1.392-4.152 5.184-4.152 3.744 0 5.04 1.68 5.04 4.656z" />
            <path d="M110.929 15.936h-3.048V8.784c0-1.416-0.744-2.424-1.848-2.424-1.152 0-1.992 1.08-1.992 2.52v7.056h-3.12V8.832c0-1.896-0.504-2.376-1.8721-2.376-1.248 0-1.896 0.768-1.896 2.304v7.176h-3.12V4.128h2.928v1.728c0.792-1.56 1.896-2.04 3.4561-2.04 1.608 0 2.376 0.504 3.288 1.872 0.648-1.296 1.704-1.872 3.192-1.872 2.376 0 4.032 1.728 4.032 3.936z" />
            <path d="M115.079 8.88h4.824c-0.048-1.752-1.2-2.592-2.424-2.592-1.248 0-2.28 0.96-2.4 2.592zM123.119 10.848h-8.136c0.096 1.776 1.104 2.928 2.64 2.928 1.008 0 1.896-0.504 2.112-1.32h3.216c-0.72 2.424-2.664 3.792-5.184 3.792-3.936 0-5.904-2.16-5.904-6.432 0-3.648 2.088-6 5.712-6s5.544 2.352 5.544 7.032z" />
        </symbol>
        <symbol id="icon-camera" viewBox="0 0 16 16" fill="currentColor" fill-opacity="0.4">
            <path d="M10.5 8.5c0 0.663-0.2634 1.2989-0.7322 1.7678C9.2989 10.7366 8.663 11 8 11s-1.2989-0.2634-1.7678-0.7322C5.7634 9.7989 5.5 9.163 5.5 8.5s0.2634-1.2989 0.7322-1.7678C6.7011 6.2634 7.337 6 8 6s1.2989 0.2634 1.7678 0.7322C10.2366 7.2011 10.5 7.837 10.5 8.5z" />
            <path d="M2 4C1.4696 4 0.9609 4.2107 0.5858 4.5858S0 5.4696 0 6v6c0 0.5304 0.2107 1.0391 0.5858 1.4142S1.4696 14 2 14h12c0.5304 0 1.0391-0.2107 1.4142-0.5858S16 12.5304 16 12V6c0-0.5304-0.2107-1.0391-0.5858-1.4142S14.5304 4 14 4h-1.172c-0.5304-1e-4-1.039-0.2109-1.414-0.586l-0.828-0.828C10.211 2.2109 9.7024 2.0001 9.172 2H6.828c-0.5304 1e-4-1.039 0.2109-1.414 0.586L4.586 3.414C4.211 3.7891 3.7024 3.9999 3.172 4zM2.5 6C2.3674 6 2.2402 5.9473 2.1465 5.8536 2.0527 5.7598 2 5.6326 2 5.5s0.0527-0.2598 0.1465-0.3536C2.2402 5.0527 2.3674 5 2.5 5s0.2598 0.0527 0.3535 0.1464C2.9473 5.2402 3 5.3674 3 5.5S2.9473 5.7598 2.8535 5.8536C2.7598 5.9473 2.6326 6 2.5 6zM11.5 8.5c0 0.9283-0.3687 1.8185-1.0251 2.4749S8.9283 12 8 12s-1.8185-0.3687-2.4749-1.0251C4.8688 10.3185 4.5 9.4283 4.5 8.5s0.3688-1.8185 1.0251-2.4749C6.1815 5.3688 7.0717 5 8 5s1.8185 0.3688 2.4749 1.0251C11.1313 6.6815 11.5 7.5717 11.5 8.5z" />
        </symbol>
        <symbol id="icon-nav" viewBox="0 0 32 22" stroke-width="2" stroke="var(--color0, #fff)" stroke-linecap="round" fill="none">
            <line x1="5.86963" x2="31.0001" y1="3.66669" y2="3.66669" />
            <line x1="5.86963" x2="31.0001" y1="17" y2="17" />
            <line x1="13.5217" x2="31" y1="10.3333" y2="10.3333" />
        </symbol>
    </defs>
</svg>